<?xml version="1.0" standalone="no"?><!DOCTYPE svg PUBLIC "-//W3C//DTD SVG 1.1//EN" "http://www.w3.org/Graphics/SVG/1.1/DTD/svg11.dtd"><svg t="1585649682402" class="icon" viewBox="0 0 1024 1024" version="1.1" xmlns="http://www.w3.org/2000/svg" p-id="6064" xmlns:xlink="http://www.w3.org/1999/xlink" width="200" height="200"><defs><style type="text/css"></style></defs><path d="M996.693333 409.6l20.48-20.48c6.826667-6.826667 6.826667-17.066667 0-23.893333-3.413333-6.826667-116.053333-153.6-307.2-174.08-17.066667-34.133333-85.333333-170.666667-221.866666-174.08-34.133333 0-78.506667 6.826667-126.293334 23.893333 71.68 23.893333 174.08 71.68 215.04 157.013333 30.72-3.413333 61.44-6.826667 88.746667-6.826666 10.24-3.413333 17.066667 3.413333 17.066667 13.653333s-6.826667 17.066667-17.066667 17.066667C443.733333 221.866667 102.4 375.466667 102.4 580.266667c0 211.626667 122.88 256 126.293333 256 10.24 3.413333 13.653333 13.653333 10.24 20.48-3.413333 6.826667-10.24 10.24-17.066666 10.24h-6.826667C211.626667 866.986667 68.266667 812.373333 68.266667 580.266667c0-136.533333 119.466667-242.346667 262.826666-307.2C279.893333 235.52 167.253333 180.906667 102.4 153.6 64.853333 177.493333 30.72 201.386667 3.413333 225.28c-3.413333 6.826667-3.413333 13.653333-3.413333 20.48 3.413333 6.826667 10.24 10.24 17.066667 10.24 27.306667 0 64.853333 17.066667 105.813333 40.96C71.68 351.573333 0 450.56 0 580.266667c0 153.6 61.44 235.52 122.88 303.786666 40.96 40.96 92.16 58.026667 143.36 75.093334 37.546667 13.653333 78.506667 23.893333 116.053333 47.786666 3.413333 3.413333 6.826667 3.413333 10.24 3.413334 3.413333 0 10.24-3.413333 13.653334-6.826667 6.826667-6.826667 6.826667-17.066667 0-23.893333-6.826667-6.826667-61.44-71.68 0-126.293334 61.44-58.026667 71.68-194.56 75.093333-201.386666 0-6.826667-3.413333-13.653333-10.24-17.066667-6.826667-3.413333-13.653333-3.413333-20.48 3.413333-68.266667 61.44-157.013333 129.706667-177.493333 133.12-23.893333 0-68.266667-54.613333-68.266667-102.4 0-44.373333 58.026667-136.533333 119.466667-136.533333 40.96 0 92.16 23.893333 136.533333 44.373333 10.24 3.413333 17.066667 6.826667 23.893333 10.24-17.066667-20.48-34.133333-44.373333-61.44-68.266666-6.826667-6.826667-6.826667-17.066667 0-23.893334 6.826667-6.826667 17.066667-6.826667 23.893334 0 37.546667 37.546667 105.813333 119.466667 109.226666 163.84v6.826667c0 3.413333 0 3.413333-3.413333 6.826667 0 0 0 3.413333-3.413333 3.413333s-3.413333 6.826667-3.413334 13.653333c3.413333 6.826667 10.24 10.24 17.066667 10.24 40.96 0 68.266667-30.72 85.333333-68.266666h119.466667c136.533333 0 249.173333-170.666667 252.586667-177.493334 3.413333-6.826667 3.413333-17.066667-3.413334-20.48l-20.48-23.893333z m-249.173333 92.16c6.826667 6.826667 6.826667 17.066667 0 23.893333-3.413333 3.413333-6.826667 3.413333-10.24 3.413334-3.413333 0-10.24-3.413333-13.653333-6.826667 0 0-37.546667-40.96-37.546667-129.706667 0-98.986667 44.373333-102.4 51.2-102.4 6.826667 0 13.653333 6.826667 13.653333 17.066667s-6.826667 17.066667-13.653333 17.066667c0 0-20.48 10.24-20.48 68.266666 0 75.093333 30.72 105.813333 30.72 109.226667z m105.813333-75.093333c-20.48 0-34.133333-13.653333-34.133333-34.133334s13.653333-34.133333 34.133333-34.133333 34.133333 13.653333 34.133334 34.133333-13.653333 34.133333-34.133334 34.133334z" fill="#1296db" p-id="6065"></path><path d="M303.786667 58.026667C249.173333 78.506667 191.146667 102.4 139.946667 133.12c64.853333 30.72 184.32 85.333333 225.28 122.88 58.026667-23.893333 119.466667-44.373333 177.493333-54.613333-51.2-85.333333-187.733333-129.706667-238.933333-143.36z" fill="#1296db" p-id="6066"></path></svg>